<svg viewBox="0 0 324 42" fill="none" xmlns="http://www.w3.org/2000/svg">
<path d="M47.748 41.6701V0.837158H75.0612V8.99196H57.1427V17.0377H71.6327V24.9164H57.1427V33.5153H75.0612V41.6701H47.748Z" fill="#121212"/>
<path d="M91.7481 41.6701V0.837158H105.401C114.858 0.837158 120.731 5.31338 120.731 12.5175C120.731 15.7529 119.088 18.6048 116.372 20.2019C119.868 21.8455 122.225 25.5329 122.225 29.5474C122.225 37.1376 116.371 41.6701 106.562 41.6701H91.7481ZM106.949 33.8468C110.3 33.8468 112.467 31.942 112.467 28.9942C112.467 25.4572 109.902 24.197 107.503 24.197H101.154V33.8468H106.949ZM105.733 17.4255C106.741 17.4255 107.812 17.3877 108.803 17.1125C110.236 16.5672 111.084 15.1487 111.084 13.236C111.084 10.3278 109.214 8.66042 105.953 8.66042H101.154V17.4255H105.733Z" fill="#121212"/>
<path d="M156.224 41.6701C144.492 41.6701 135.645 32.893 135.645 21.2536C135.645 9.61431 144.492 0.837158 156.224 0.837158C167.956 0.837158 176.803 9.61431 176.803 21.2536C176.803 32.893 167.956 41.6701 156.224 41.6701ZM156.224 9.42638C149.812 9.42638 144.976 14.5107 144.976 21.2536C144.976 27.9966 149.812 33.0809 156.224 33.0809C162.636 33.0809 167.472 27.9966 167.472 21.2536C167.472 14.5107 162.636 9.42638 156.224 9.42638V9.42638Z" fill="#121212"/>
<path d="M260.836 41.6701L252.462 27.7358H247.535V41.6701H238.164V0.837158H252.666C262.612 0.837158 268.55 5.92721 268.55 14.4522C268.55 19.7674 265.874 23.9596 261.181 26.0403L271.025 41.6701H260.836ZM253.108 19.858C255.293 19.858 258.959 19.1562 258.959 14.4522C258.959 10.9821 256.746 8.99196 252.888 8.99196H247.535V19.858H253.108Z" fill="#121212"/>
<path d="M213.775 41.6701L205.402 27.7358H200.474V41.6701H191.104V0.837158H205.606C215.552 0.837158 221.489 5.92721 221.489 14.4522C221.489 19.7674 218.813 23.9596 214.12 26.0403L223.964 41.6701H213.775ZM206.047 19.858C208.232 19.858 211.898 19.1562 211.898 14.4522C211.898 10.9821 209.685 8.99196 205.827 8.99196H200.474V19.858H206.047Z" fill="#121212"/>
<path d="M23.3436 41.6721L14.9701 27.7377H10.0428V41.6721H0.671875V0.839111H15.1742C25.1203 0.839111 31.0574 5.92916 31.0574 14.4542C31.0574 19.7694 28.3817 23.9615 23.6884 26.0422L33.5325 41.6721H23.3436ZM15.6157 19.86C17.8005 19.86 21.4666 19.1582 21.4666 14.4542C21.4666 10.984 19.2536 8.99392 15.3958 8.99392H10.0428V19.86H15.6157Z" fill="#121212"/>
<path d="M285.234 41.6702H294.552V23.5095L311.472 41.6702H323.323L285.244 0.835938L285.234 41.6702Z" fill="#121212"/>
<path d="M323.323 0.834839H311.121L323.323 13.9516V0.834839Z" fill="#121212"/>
</svg>